<?xml version="1.0" encoding="iso-8859-1"?>
<!-- Generator: Adobe Illustrator 18.0.0, SVG Export Plug-In . SVG Version: 6.00 Build 0)  -->
<!DOCTYPE svg PUBLIC "-//W3C//DTD SVG 1.1//EN" "http://www.w3.org/Graphics/SVG/1.1/DTD/svg11.dtd">
<svg xmlns="http://www.w3.org/2000/svg" xmlns:xlink="http://www.w3.org/1999/xlink" version="1.1" id="Capa_1" x="0px" y="0px" viewBox="0 0 297 297" style="enable-background:new 0 0 297 297;" xml:space="preserve" width="512px" height="512px">
<g>
	<path d="M210.244,297h19.059c1.489,0,2.753-1.016,3.075-2.47c1.445-6.526,35.428-160.39,40.459-208.246   c0.481-4.577-1.096-9.145-4.442-12.861c-4.478-4.973-11.541-7.943-18.891-7.943c-4.298,0-8.469,1.044-12.096,2.983l-11.661,98.111   c2.709,4.612,4.133,9.541,4.133,14.666c0,7.314-2.87,14.235-8.299,20.39L210.244,297z" fill="#FFFCFC"/>
	<path d="M168.701,65.48c-4.184,0-8.243,0.999-11.801,2.84v68.062c6.538,0.356,12.908,1.128,18.998,2.286l4.415-70.439   C176.798,66.448,172.811,65.48,168.701,65.48z" fill="#FFFCFC"/>
	<path d="M140.1,68.319c-3.558-1.841-7.617-2.84-11.801-2.84c-4.111,0-8.098,0.969-11.611,2.748l4.415,70.439   c6.09-1.158,12.459-1.93,18.998-2.286V68.319z" fill="#FFFCFC"/>
	<path d="M83.923,181.24c0,13.355,27.617,28.293,64.577,28.293c36.961,0,64.579-14.938,64.579-28.293   c0-13.355-27.617-28.293-64.579-28.293C111.541,152.947,83.923,167.884,83.923,181.24z" fill="#FFFCFC"/>
	<path d="M220.527,68.137c-3.469-1.72-7.386-2.657-11.426-2.657c-4.248,0-8.37,1.025-11.968,2.921l-4.677,74.621   c4.04,1.394,7.867,2.983,11.42,4.77c2.405,1.209,4.636,2.497,6.726,3.842L220.527,68.137z" fill="#FFFCFC"/>
	<path d="M59.593,68.463c-3.627-1.939-7.798-2.983-12.096-2.983c-7.351,0-14.414,2.969-18.891,7.943   c-3.346,3.716-4.923,8.284-4.442,12.862c5.031,47.856,39.014,201.719,40.459,208.245c0.322,1.454,1.586,2.47,3.075,2.47h19.059   l-11.336-95.372c-5.428-6.155-8.297-13.076-8.297-20.388c0-5.124,1.423-10.052,4.131-14.663L59.593,68.463z" fill="#FFFCFC"/>
	<path d="M87.899,65.48c-4.039,0-7.957,0.938-11.426,2.657l9.924,83.497c2.09-1.345,4.321-2.633,6.727-3.843   c3.552-1.786,7.38-3.375,11.419-4.769l-4.677-74.621C96.268,66.505,92.147,65.48,87.899,65.48z" fill="#FFFCFC"/>
	<path d="M103.675,297h10.518l-4.762-75.987c-5.551-1.629-10.751-3.614-15.493-5.934L103.675,297z" fill="#FFFCFC"/>
	<path d="M47.497,50.78c7.179,0,14.179,1.882,20.201,5.371c6.022-3.489,13.022-5.371,20.201-5.371   c7.178,0,14.178,1.882,20.201,5.372c6.022-3.49,13.022-5.372,20.2-5.372c7.179,0,14.179,1.882,20.201,5.371   c6.022-3.489,13.022-5.371,20.201-5.371c7.178,0,14.178,1.882,20.2,5.372c6.023-3.49,13.023-5.372,20.201-5.372   c7.179,0,14.179,1.882,20.201,5.371c6.022-3.489,13.022-5.371,20.201-5.371c2.528,0,5.038,0.246,7.497,0.696   c-0.02-0.02-0.041-0.042-0.06-0.062c-1.361-1.386-2.767-2.82-3.353-3.787c-0.351-0.622-0.863-2.703-1.203-4.079   c-1.202-4.879-2.847-11.56-8.698-16.303c-4.841-3.926-10.619-4.471-15.261-4.908c-1.911-0.179-4.529-0.427-5.372-0.85   c-0.639-0.408-2.108-2.149-3.081-3.302c-2.884-3.416-6.834-8.092-12.997-10.128c-5.641-1.863-11.046-0.668-15.39,0.291   c-1.715,0.379-4.31,0.954-5.075,0.821c-0.751-0.235-2.67-1.616-3.94-2.53c-3.693-2.657-8.289-5.964-14.448-6.554   c-5.885-0.562-10.873,1.714-14.886,3.545c-1.554,0.709-3.904,1.78-4.717,1.825c-0.852-0.044-3.203-1.117-4.759-1.825   c-4.014-1.831-9.014-4.104-14.887-3.544c-6.158,0.59-10.755,3.896-14.448,6.553c-1.27,0.914-3.19,2.295-3.846,2.507   c-0.868,0.154-3.453-0.419-5.169-0.798c-4.343-0.962-9.748-2.154-15.387-0.291c-6.162,2.034-10.112,6.711-12.997,10.127   c-0.973,1.151-2.443,2.893-2.999,3.256c-0.926,0.47-3.543,0.717-5.454,0.896c-4.642,0.438-10.418,0.982-15.257,4.906   c-5.853,4.745-7.499,11.426-8.7,16.303c-0.339,1.377-0.852,3.458-1.197,4.069c-0.594,0.98-2,2.414-3.36,3.8   c-0.019,0.02-0.04,0.041-0.059,0.061C42.459,51.027,44.969,50.78,47.497,50.78z" fill="#FFFCFC"/>
	<path d="M193.325,297l9.737-81.921c-4.742,2.32-9.942,4.305-15.493,5.933L182.807,297H193.325z" fill="#FFFCFC"/>
	<path d="M165.974,297l4.529-72.272c-4.424,0.658-8.972,1.118-13.604,1.37V297H165.974z" fill="#FFFCFC"/>
	<path d="M140.1,297v-70.902c-4.632-0.252-9.18-0.712-13.604-1.37l4.53,72.272H140.1z" fill="#FFFCFC"/>
</g>
<g>
</g>
<g>
</g>
<g>
</g>
<g>
</g>
<g>
</g>
<g>
</g>
<g>
</g>
<g>
</g>
<g>
</g>
<g>
</g>
<g>
</g>
<g>
</g>
<g>
</g>
<g>
</g>
<g>
</g>
</svg>
